<svg version="1.2" xmlns="http://www.w3.org/2000/svg" viewBox="0 0 512 512" width="512" height="512">
	<title>heart-svgrepo-com-svg</title>
	<style>
		.s0 { fill: #ff6647 } 
	</style>
	<path id="Layer" class="s0" d="m512 174.9c0 44.5-13.5 88.4-40 130.5-21 33.3-50.2 65.5-86.8 95.8-62.1 51.4-123.1 79-125.7 80.2-2.2 1-4.8 1-7 0-2.6-1.2-63.6-28.8-125.7-80.2-36.6-30.3-65.8-62.5-86.8-95.8-26.5-42.1-40-86-40-130.5 0-37 13.6-73.6 37.3-100.4 25.5-28.8 60.8-44.6 99.2-44.6 30.3 0 58.5 12.3 81.8 35.5 15.5 15.6 28.3 35.3 37.7 58 9.4-22.7 22.2-42.4 37.7-58 23.3-23.2 51.5-35.5 81.8-35.5 38.4 0 73.7 15.8 99.2 44.6 23.7 26.8 37.3 63.4 37.3 100.4z"/>
</svg>